<?xml version="1.0" standalone="no"?>
<!DOCTYPE svg PUBLIC "-//W3C//DTD SVG 20010904//EN"
 "http://www.w3.org/TR/2001/REC-SVG-20010904/DTD/svg10.dtd">
<svg version="1.0" xmlns="http://www.w3.org/2000/svg"
 width="90.000000pt" height="92.000000pt" viewBox="0 0 90.000000 92.000000"
 preserveAspectRatio="xMidYMid meet">

<g transform="translate(0.000000,92.000000) scale(0.100000,-0.100000)"
fill="#000000" stroke="none">
<path d="M632 810 c-18 -4 -50 -19 -72 -34 -33 -21 -51 -26 -105 -26 -164 0
-262 -139 -213 -302 11 -38 11 -39 -30 -81 -46 -47 -52 -77 -22 -107 30 -30
56 -24 108 24 41 38 50 42 72 34 38 -14 133 -11 173 6 79 32 148 152 133 227
-4 21 3 42 29 85 28 47 35 68 35 111 0 70 -22 83 -108 63z m82 -6 c21 -8 21
-82 1 -130 -8 -20 -46 -68 -85 -108 -38 -40 -70 -78 -70 -84 0 -17 -25 -15
-40 3 -7 8 -17 15 -22 15 -6 0 -5 -6 1 -14 10 -12 8 -17 -10 -26 -19 -11 -27
-6 -75 41 -56 56 -63 69 -41 88 10 8 22 1 52 -29 22 -22 44 -40 49 -40 6 0
-10 20 -34 45 l-44 45 64 66 c102 103 196 150 254 128z m-354 -189 c-23 -19
-48 -35 -55 -35 -7 0 -22 -3 -32 -6 -10 -3 2 13 27 35 30 28 54 41 73 41 l29
0 -42 -35z m25 -161 c14 -15 25 -31 25 -35 0 -5 -35 -42 -77 -84 -58 -56 -85
-75 -105 -75 -31 0 -54 31 -41 55 15 25 153 165 164 165 5 0 21 -12 34 -26z
m156 -79 c-28 -31 -41 -39 -41 -27 0 22 26 71 53 100 l22 24 3 -27 c3 -19 -7
-38 -37 -70z"/>
<path d="M557 712 c-53 -58 28 -137 83 -82 21 21 24 37 14 64 -10 27 -19 18
-19 -21 0 -34 -3 -38 -28 -41 -57 -7 -76 42 -31 77 17 13 21 21 12 21 -8 0
-22 -8 -31 -18z"/>
<path d="M575 690 c-3 -5 -2 -10 4 -10 5 0 13 5 16 10 3 6 2 10 -4 10 -5 0
-13 -4 -16 -10z"/>
<path d="M317 213 c-3 -5 -7 -35 -8 -68 l-4 -60 33 -3 c31 -3 43 10 22 23 -5
3 -10 11 -10 17 0 7 5 6 15 -2 8 -7 21 -10 29 -7 10 4 12 0 9 -14 -4 -16 0
-19 27 -19 l32 0 -7 63 c-9 74 -10 77 -39 77 -15 0 -26 -9 -33 -27 l-11 -28
-1 28 c-1 22 -6 27 -25 27 -14 0 -27 -3 -29 -7z"/>
<path d="M465 210 c-5 -8 2 -46 21 -112 4 -13 16 -18 44 -18 38 0 40 2 50 43
6 23 13 48 15 55 8 22 -7 42 -31 42 -22 0 -24 -4 -24 -45 0 -25 -5 -45 -11
-45 -6 0 -9 14 -8 33 2 18 0 38 -5 45 -9 14 -42 16 -51 2z"/>
</g>
</svg>
